<svg xmlns="http://www.w3.org/2000/svg" width="114" height="26" viewBox="0 0 114 26">
    <g fill="none" fill-rule="evenodd">
        <path fill="#058CFF" d="M22.891 8.284c1.332-1.332 1.332-3.492 0-4.824-1.332-1.33-3.492-1.33-4.824 0l-4.619 4.62 4.824 4.823 4.62-4.619z"/>
        <path fill="#00E6B2" d="M3.891 17.637c-1.332 1.332-1.332 3.49 0 4.823 1.332 1.332 3.492 1.332 4.824 0l4.733-4.733-4.823-4.823-4.734 4.733zM6.497 1.128c-1.332-1.332-3.492-1.332-4.824 0-1.332 1.332-1.332 3.491 0 4.823l6.952 6.952 4.823-4.824-6.95-6.951z"/>
        <path fill="#058CFF" d="M25.096 19.728l-6.823-6.824-4.825 4.823 6.825 6.824c1.332 1.332 3.492 1.332 4.823 0 1.332-1.332 1.332-3.491 0-4.823"/>
        <path fill="#058CFF" d="M13.425 8.046L13.425 17.864 18.272 12.903z"/>
        <path fill="#00E6B2" d="M13.473 8.046L13.473 17.864 8.625 12.903z"/>
        <path fill="#271463" d="M11.022 10.507c-1.346 1.347-1.346 3.529 0 4.875l.033.033L13.4 17.76l2.526-2.34c1.346-1.345 1.346-3.528 0-4.874l-.034-.033-2.466-2.467-2.403 2.46zM38.874 10.977c.56 0 1.123-.024 1.684-.072.562-.048 1.076-.162 1.544-.345.468-.182.847-.46 1.138-.832.29-.374.437-.895.437-1.565 0-.593-.136-1.072-.406-1.436-.27-.363-.623-.636-1.06-.818-.437-.182-.92-.301-1.45-.36-.531-.056-1.045-.085-1.544-.085h-3.4v5.513h3.057zm-6.987-8.614h7.673c1.06 0 2.085.092 3.072.273.988.182 1.866.493 2.636.933.769.44 1.382 1.034 1.84 1.78.457.747.686 1.694.686 2.843 0 1.473-.442 2.709-1.325 3.703-.885.996-2.148 1.599-3.79 1.81l5.863 8.986h-4.74l-5.115-8.613h-2.87v8.613h-3.93V2.363z"/>
        <path fill="#271463" d="M51.38 15.8c0 .536.099 1.053.297 1.55.198.498.489.938.873 1.32.385.384.848.69 1.389.92.54.23 1.153.345 1.839.345.687 0 1.3-.115 1.84-.345.54-.23 1.004-.536 1.389-.92.384-.382.675-.822.873-1.32.197-.497.296-1.014.296-1.55s-.1-1.053-.296-1.551c-.198-.497-.49-.937-.873-1.32-.385-.383-.848-.69-1.388-.92-.541-.23-1.154-.344-1.841-.344-.686 0-1.3.115-1.84.345-.54.229-1.003.536-1.388.919-.384.383-.675.823-.873 1.32-.198.498-.296 1.015-.296 1.55m-3.743 0c0-1.09.213-2.081.639-2.971.426-.89 1.003-1.651 1.73-2.282.729-.632 1.592-1.12 2.59-1.465.998-.344 2.059-.516 3.18-.516 1.125 0 2.185.172 3.183.516.998.345 1.86.833 2.589 1.465.728.63 1.304 1.393 1.73 2.282.427.89.64 1.88.64 2.972 0 1.09-.213 2.08-.64 2.972-.426.889-1.002 1.65-1.73 2.282-.73.632-1.591 1.12-2.59 1.465-.997.343-2.057.516-3.181.516-1.122 0-2.183-.173-3.181-.516-.998-.345-1.861-.833-2.59-1.465-.727-.632-1.304-1.393-1.73-2.282-.426-.891-.64-1.881-.64-2.972M76.082 13.043c-.437-.42-.894-.756-1.372-1.005-.479-.248-.967-.373-1.466-.373-.686 0-1.3.115-1.84.345-.54.229-1.004.536-1.388.919-.385.383-.676.823-.873 1.32-.199.498-.297 1.015-.297 1.551s.098 1.053.297 1.551c.197.497.488.937.873 1.32.384.383.847.689 1.388.919.54.229 1.154.345 1.84.345.582 0 1.123-.111 1.622-.331.5-.22.924-.54 1.278-.961l2.496 2.468c-.375.345-.807.642-1.295.89-.489.249-.982.45-1.48.604-.5.152-.979.262-1.436.33-.458.066-.853.1-1.185.1-1.123 0-2.183-.173-3.182-.516-.998-.345-1.86-.833-2.588-1.465-.728-.632-1.306-1.393-1.73-2.282-.428-.891-.64-1.881-.64-2.972s.212-2.082.64-2.972c.424-.889 1.002-1.651 1.73-2.282.727-.632 1.59-1.12 2.588-1.465 1-.345 2.06-.517 3.182-.517.956 0 1.918.168 2.885.502.967.336 1.814.868 2.542 1.594l-2.589 2.383zM79.326.984L83.069.984 83.069 14.622 88.839 8.909 93.642 8.909 87.217 15.168 94.047 22.69 89.088 22.69 83.131 15.656 83.069 15.656 83.069 22.69 79.326 22.69z"/>
        <path fill="#271463" d="M100.254 12.067L92.893 2.362 97.852 2.362 103.061 9.884 108.207 2.362 112.98 2.362 105.743 12.067 113.759 22.69 108.769 22.69 102.936 14.105 97.135 22.69 92.394 22.69z"/>
    </g>
</svg>
