<?xml version="1.0" encoding="UTF-8"?>
<svg width="24px" height="24px" viewBox="0 0 24 24" version="1.1" xmlns="http://www.w3.org/2000/svg" xmlns:xlink="http://www.w3.org/1999/xlink">
    <!-- Generator: Sketch 51.2 (57519) - http://www.bohemiancoding.com/sketch -->
    <title>Group 7</title>
    <desc>Created with Sketch.</desc>
    <defs></defs>
    <g id="Community-&amp;-FAQ-Page" stroke="none" stroke-width="1" fill="none" fill-rule="evenodd">
        <g id="Community---1" transform="translate(-800.000000, -408.000000)" fill-rule="nonzero">
            <g id="Group-7" transform="translate(800.000000, 408.000000)">
                <g id="telegram" fill="#31CB9E">
                    <circle id="Oval" cx="11.9998594" cy="12" r="11.9998594"></circle>
                </g>
                <g id="speaker-symbol-of-voice-volume" transform="translate(3.000000, 5.250000)" fill="#FFFFFF">
                    <path d="M11.4941473,0.42599811 L11.4941473,6.19146156 L11.4941473,11.9569585 C11.4941473,12.3764407 10.9887424,12.5443473 10.7807196,12.1912717 C9.59029989,10.1727456 8.41457865,9.11422123 4.28548624,8.88994427 L5.58900394,13.5 L3.64084599,13.5 L2.32244535,8.8376219 C1.03085861,8.77325602 0,7.61256254 0,6.19146156 C0,4.72894428 1.09088235,3.53874419 2.43517437,3.53874419 C8.09757825,3.53874419 9.42867858,2.48410052 10.7805351,0.19145071 C10.9887424,-0.161390742 11.4941473,0.00651589043 11.4941473,0.42599811 Z M14.8476972,6.75018016 C14.8476972,7.85507204 14.5060354,8.86990521 13.9918669,9.63767911 C13.9918669,9.63767911 13.785935,9.94455449 13.4440272,9.94455449 C13.0921565,9.94455449 12.7813983,9.62312653 12.7813983,9.21976923 C12.7813983,8.98160878 12.9125157,8.78800932 12.9125157,8.78800932 C13.1571924,8.3987697 13.5155514,7.80094314 13.5155514,6.75018016 C13.5155514,5.69941718 13.1571924,5.10135644 12.9125157,4.71211681 C12.9125157,4.71211681 12.7813983,4.51851736 12.7813983,4.2803569 C12.7813983,3.87699961 13.0921257,3.55557165 13.4440272,3.55557165 C13.785935,3.55557165 13.9918669,3.86244703 13.9918669,3.86244703 C14.5062507,4.63045511 14.8476972,5.64528828 14.8476972,6.75018016 Z M14.3531471,2.5676022 C14.3531471,2.5676022 14.0525056,2.33372389 14.0525056,1.96726658 C14.0525056,1.55480974 14.363848,1.23973808 14.7186708,1.23973808 C14.9468348,1.23973808 15.1569794,1.41467009 15.1569794,1.41467009 C15.9621955,2.06983716 17.25,3.7487362 17.25,6.75018016 C17.25,9.75162411 15.9619802,11.4305232 15.1567334,12.0856902 C15.1567334,12.0856902 14.9465888,12.2606222 14.7184863,12.2606222 C14.363848,12.2606222 14.0522596,11.9455506 14.0522596,11.5331272 C14.0522596,11.1666364 14.3529626,10.9327916 14.3529626,10.9327916 C15.2901264,10.180507 15.9174237,8.67677411 15.9174237,6.75021361 C15.9174237,4.82365312 15.2901264,3.31988681 14.3531471,2.5676022 Z" id="Shape"></path>
                </g>
            </g>
        </g>
    </g>
</svg>