<svg width="48" height="48" viewBox="0 0 48 48" fill="none" xmlns="http://www.w3.org/2000/svg">
<g clip-path="url(#clip0_225_4126)">
<path d="M42.7445 31.2871C39.8467 31.2871 37.4891 33.6447 37.4891 36.5425C37.4891 39.4404 39.8466 41.798 42.7445 41.798C45.6423 41.798 47.9999 39.4404 47.9999 36.5425C47.9999 33.6447 45.6424 31.2872 42.7445 31.2871ZM42.7445 39.9235C40.8803 39.9235 39.3636 38.4068 39.3636 36.5425C39.3636 34.6783 40.8804 33.1616 42.7446 33.1616C44.6088 33.1616 46.1255 34.6783 46.1255 36.5425C46.1255 38.4068 44.6088 39.9235 42.7445 39.9235Z" fill="#31CB9E"/>
<path d="M42.7446 5.98193C42.7445 5.98193 42.7446 5.98193 42.7446 5.98193C41.3408 5.98193 40.021 6.52862 39.0285 7.52115C38.0359 8.51377 37.4892 9.83348 37.4892 11.2373C37.4892 14.1351 39.8468 16.4927 42.7446 16.4927C45.6424 16.4927 48 14.1351 48 11.2373C48 9.83348 47.4534 8.51377 46.4608 7.52115C45.4681 6.52853 44.1484 5.98193 42.7446 5.98193ZM42.7446 14.6182C40.8804 14.6182 39.3637 13.1015 39.3637 11.2373C39.3637 10.3342 39.7153 9.48521 40.3539 8.84658C40.9925 8.20804 41.8415 7.8564 42.7446 7.8564C43.6477 7.8564 44.4967 8.20804 45.1353 8.84667C45.7738 9.48521 46.1255 10.3342 46.1255 11.2374C46.1255 13.1016 44.6089 14.6182 42.7446 14.6182Z" fill="#31CB9E"/>
<path d="M5.25543 16.4925C8.15325 16.4925 10.5109 14.1348 10.5109 11.237C10.5109 8.3392 8.15325 5.98169 5.25543 5.98169C2.3576 5.98169 2.7556e-09 8.3392 2.7556e-09 11.237C-9.37203e-05 14.102 2.39059 16.4925 5.25543 16.4925ZM5.25543 7.85615C7.11967 7.85615 8.63639 9.37287 8.63639 11.2371C8.63639 13.1014 7.11967 14.6181 5.25543 14.6181C3.41227 14.618 1.87446 13.0801 1.87446 11.237C1.87446 9.37278 3.39118 7.85615 5.25543 7.85615Z" fill="#31CB9E"/>
<path d="M27.9909 17.836C28.3288 17.9866 28.7237 17.9243 28.999 17.6769L35.3928 11.9298C35.8008 11.5631 35.8008 10.9025 35.3928 10.5358L28.999 4.78871C28.4073 4.25692 27.4352 4.69198 27.4352 5.48572V8.23059H17.6517C17.1341 8.23059 16.7145 8.65019 16.7145 9.16782C16.7145 9.68545 17.1341 10.1051 17.6517 10.1051H28.3724C28.8901 10.1051 29.3097 9.68545 29.3097 9.16782V7.58849L33.3642 11.2329L29.3097 14.8773V13.2979C29.3097 12.7803 28.8901 12.3607 28.3724 12.3607H22.9996C22.6852 12.3607 22.3918 12.5183 22.2182 12.7805C22.0445 13.0426 22.014 13.3743 22.1367 13.6638C22.4402 14.3798 22.5941 15.14 22.5941 15.9236V32.1377C22.5941 34.1014 24.1917 35.6991 26.1556 35.6991H28.3725C28.8902 35.6991 29.3098 35.2795 29.3098 34.7619V33.1227L33.3643 36.7671L29.3098 40.4115V38.8856C29.3098 38.368 28.8902 37.9484 28.3725 37.9484H26.1556C22.9515 37.9484 20.3448 35.3417 20.3448 32.1376V15.9235C20.3448 13.9597 18.7472 12.362 16.7833 12.362H13.5208C13.0032 12.362 12.5836 12.7816 12.5836 13.2992C12.5836 13.8169 13.0032 14.2365 13.5208 14.2365H16.7833C17.7135 14.2365 18.4703 14.9933 18.4703 15.9235V32.1376C18.4703 36.3753 21.9179 39.8229 26.1556 39.8229H27.4353V42.5141C27.4353 43.3067 28.4066 43.7437 28.9991 43.2111L35.3928 37.464C35.8009 37.0973 35.8009 36.4367 35.3928 36.07L28.9991 30.3229C28.4074 29.7911 27.4353 30.2262 27.4353 31.0199V33.8245H26.1556C25.2254 33.8245 24.4686 33.0677 24.4686 32.1375V15.9234C24.4686 15.3499 24.4061 14.7855 24.2822 14.2351H27.4352V16.9799C27.4352 17.3499 27.6529 17.6854 27.9909 17.836Z" fill="#31CB9E"/>
<path d="M12.7422 9.68848C13.022 10.1164 13.619 10.2274 14.0412 9.94715C14.4668 9.66467 14.5825 9.07122 14.2998 8.64721C14.0166 8.22227 13.4253 8.10596 13.0008 8.38854C12.5756 8.67149 12.4595 9.26429 12.7422 9.68848Z" fill="#31CB9E"/>
</g>
<defs>
<clipPath id="clip0_225_4126">
<rect width="48" height="48" fill="white"/>
</clipPath>
</defs>
</svg>
