<svg width="24" height="24" viewBox="0 0 24 24" fill="none" xmlns="http://www.w3.org/2000/svg">
<circle cx="12" cy="12" r="12" fill="#1D7A5F"/>
<path d="M16 12C16 12.3667 16.3 12.6667 16.6667 12.6667H18C18.3667 12.6667 18.6667 12.3667 18.6667 12C18.6667 11.6333 18.3667 11.3333 18 11.3333H16.6667C16.3 11.3333 16 11.6333 16 12Z" fill="white"/>
<path d="M15.06 15.2133C14.84 15.5067 14.9 15.9133 15.1933 16.1267C15.5467 16.3867 15.92 16.6667 16.2733 16.9333C16.5667 17.1533 16.98 17.0933 17.1933 16.8C17.1933 16.7933 17.2 16.7933 17.2 16.7867C17.42 16.4933 17.36 16.08 17.0667 15.8667C16.7133 15.6 16.34 15.32 15.9933 15.06C15.7 14.84 15.2867 14.9067 15.0667 15.2C15.0667 15.2067 15.06 15.2133 15.06 15.2133Z" fill="white"/>
<path d="M17.2066 7.20667C17.2066 7.2 17.2 7.2 17.2 7.19334C16.98 6.9 16.5666 6.84 16.28 7.06C15.9266 7.32667 15.5466 7.60667 15.2 7.87334C14.9066 8.09334 14.8533 8.50667 15.0733 8.79334C15.0733 8.8 15.08 8.8 15.08 8.80667C15.3 9.1 15.7066 9.16 16 8.94C16.3533 8.68 16.7266 8.39334 17.08 8.12667C17.3666 7.91334 17.42 7.5 17.2066 7.20667Z" fill="white"/>
<path d="M9.33337 10H6.66671C5.93337 10 5.33337 10.6 5.33337 11.3333V12.6667C5.33337 13.4 5.93337 14 6.66671 14H7.33337V16C7.33337 16.3667 7.63337 16.6667 8.00004 16.6667C8.36671 16.6667 8.66671 16.3667 8.66671 16V14H9.33337L12.6667 16V8L9.33337 10Z" fill="white"/>
<path d="M14.3334 12C14.3334 11.1133 13.9467 10.3133 13.3334 9.76666V14.2267C13.9467 13.6867 14.3334 12.8867 14.3334 12Z" fill="white"/>
</svg>
