<svg width="50" height="40" viewBox="0 0 50 40" fill="none" xmlns="http://www.w3.org/2000/svg">
<g clip-path="url(#clip0_248_1247)">
<path d="M6.55336 8.75413C4.56519 10.5645 3.84157 14.6667 7.42564 17.0648L21.7241 26.9324L14.7912 10.9555C13.3385 7.18531 9.36411 6.36316 6.55336 8.75413Z" fill="white"/>
<path d="M18.8615 0.986144C16.5373 1.03378 13.0472 3.81783 14.6004 8.06914L21.7709 25.0797L24.2905 7.18785C24.8736 2.74214 21.5289 0.689907 18.8615 0.986144Z" fill="white"/>
<path d="M25.4096 6.50551H26.7654C26.7654 6.50551 27.4895 6.50551 27.588 6.8491C27.0545 7.28739 25.6022 7.34231 25.795 9.68343L28.0743 25.0773L35.1958 8.02212C36.6525 4.21403 33.5949 1.03369 30.8827 0.93649C30.7561 0.927349 30.6289 0.919922 30.4973 0.919922C28.0629 0.91985 25.2733 2.69949 25.4096 6.50551Z" fill="white"/>
<path d="M34.9091 11.1004L28.1733 26.8856L42.4676 16.9659C45.7626 14.615 45.2312 10.8565 43.3867 8.99862C42.6135 8.12419 41.1937 7.44873 39.6898 7.44873C37.913 7.44837 36.0114 8.39636 34.9091 11.1004Z" fill="white"/>
<path d="M40.8672 19.2119L27.4432 28.6438H43.9721C47.3632 28.6438 49.5424 25.1268 48.5736 21.8993C47.9248 19.8706 46.0051 18.2782 43.777 18.2759C42.8391 18.2762 41.8445 18.5604 40.8672 19.2119Z" fill="white"/>
<path d="M6.16832 28.6438H22.4533L9.02586 19.212C5.9238 17.2071 2.43579 18.3802 1.17656 21.7072C0.109173 25.5156 2.77424 28.6438 6.16832 28.6438Z" fill="white"/>
<path d="M0.0523682 35.4699C0.0523682 37.0762 1.35782 40.0001 6.34247 40.0001C10.9382 40.0001 12.3897 37.8788 12.3897 36.9062H8.83174C8.83174 36.9062 8.66277 38.1912 6.65571 38.1912C4.64738 38.1912 4.10425 36.505 4.10425 35.5299C4.10425 34.5586 4.64738 32.9634 6.65571 32.9634C8.66277 32.9634 8.83174 34.0822 8.83174 34.0822H12.3897C12.3897 33.1084 11.3247 31.0171 6.34247 31.0171C1.35782 31.0171 0.0523682 34.131 0.0523682 35.4699Z" fill="white"/>
<path d="M37.366 35.4699C37.366 37.0762 38.6728 40.0001 43.6561 40.0001C48.2514 40.0001 49.7034 37.8788 49.7034 36.9062H46.148C46.148 36.9062 45.9782 38.1912 43.9707 38.1912C41.9621 38.1912 41.4184 36.505 41.4184 35.5299C41.4184 34.5586 41.9621 32.9634 43.9707 32.9634C45.9782 32.9634 46.148 34.0822 46.148 34.0822H49.7034C49.7034 33.1084 48.6396 31.0171 43.6561 31.0171C38.6728 31.0171 37.366 34.131 37.366 35.4699Z" fill="white"/>
<path d="M22.1137 31.1671V36.6049L17.973 31.1671H13.3151V39.7801H16.5084V34.2798L20.5766 39.7801H25.3072V31.1671H22.1137Z" fill="white"/>
<path d="M32.3464 37.7224V37.7338H29.6856V36.1523H32.3464V36.1574C32.9145 36.1574 33.3736 36.5087 33.3736 36.9412C33.3736 37.3726 32.9145 37.7224 32.3464 37.7224ZM29.71 32.8423H32.2738V32.8459C32.7082 32.8459 33.0604 33.1334 33.0604 33.4872C33.0604 33.8423 32.7082 34.1273 32.2738 34.1273V34.1311H29.71V32.8423ZM34.9596 35.2011C35.5409 35.2011 36.7564 34.5223 36.7564 33.2072C36.7564 31.3346 33.2898 31.1671 32.758 31.1671H26.3708V39.7801H32.758C35.83 39.7801 37.064 38.8039 37.064 37.1737C37.064 35.5435 34.9596 35.2011 34.9596 35.2011Z" fill="white"/>
</g>
<defs>
<clipPath id="clip0_248_1247">
<rect width="49.7561" height="40" fill="white"/>
</clipPath>
</defs>
</svg>
