<svg width="48" height="48" viewBox="0 0 48 48" fill="none" xmlns="http://www.w3.org/2000/svg">
<g clip-path="url(#clip0_225_4105)">
<path d="M23.7349 32.0051C23.9579 32.1366 24.2457 32.134 24.4655 31.9963L30.887 27.9694C31.0921 27.8409 31.2166 27.616 31.2166 27.374V20.728C31.2217 20.6939 31.225 20.6595 31.225 20.6243C31.225 20.3819 31.1001 20.1567 30.8947 20.0281L24.4647 16.0104C24.2369 15.868 23.9476 15.868 23.7195 16.0104L17.2896 20.0281C17.0867 20.1552 16.9592 20.3866 16.9592 20.6258V27.374C16.9592 27.616 17.0841 27.8413 17.2892 27.9698L23.7191 31.9967C23.7243 31.9996 23.7297 32.0018 23.7349 32.0051ZM24.7951 30.1297V25.0317L29.8103 21.898V26.9847L24.7951 30.1297ZM24.0919 17.4357L29.1914 20.6221L24.0919 23.8126L18.9891 20.6243L24.0919 17.4357ZM18.3655 21.8929L23.3892 25.0317V30.1308L18.3655 26.9847V21.8929Z" fill="#31CB9E"/>
<path d="M0.423707 12.0716L6.85365 16.0984C7.07778 16.2387 7.37587 16.2383 7.59999 16.0981L14.0215 12.0712C14.2266 11.9427 14.3511 11.7178 14.3511 11.4757V4.82899C14.3562 4.7953 14.3595 4.76088 14.3595 4.72609C14.3595 4.48366 14.2347 4.25807 14.0292 4.12989L7.59926 0.112185C6.83022 -0.368285 6.08498 0.824101 6.85402 1.30457L12.326 4.72389L7.22646 7.91469L2.12366 4.72609L4.49708 3.24293C5.26649 2.76246 4.52125 1.56971 3.75221 2.05018L0.424073 4.12989C0.221924 4.25624 0.09375 4.48768 0.09375 4.72609V11.4757C0.09375 11.7178 0.218262 11.943 0.423707 12.0716ZM1.49964 5.99428L1.61133 6.06423L6.52333 9.13345V14.2326L1.49964 11.0865V5.99428ZM7.92958 14.2315V9.13345L12.9449 5.99977V11.0868L7.92958 14.2315Z" fill="#31CB9E"/>
<path d="M34.1547 12.0713L40.5846 16.0982C40.8084 16.2388 41.1072 16.2377 41.3309 16.0978L47.7525 12.071C47.9575 11.9424 48.0821 11.7176 48.0821 11.4755V4.82951C48.0872 4.79545 48.0905 4.76103 48.0905 4.72587C48.0905 4.48344 47.9656 4.25822 47.7602 4.12968L41.3302 0.111969C41.1024 -0.0304871 40.8131 -0.0304871 40.585 0.111969L34.1554 4.12968C33.9529 4.25602 33.8247 4.48747 33.8247 4.72587V11.4755C33.8247 11.7176 33.9496 11.9428 34.1547 12.0713ZM35.231 5.99406L40.2546 9.13323V14.2324L35.231 11.0862V5.99406ZM41.6605 14.2313V9.13323L46.6762 5.99956V11.0866L41.6605 14.2313ZM40.9578 1.53727L46.0573 4.72367L40.9574 7.91448L35.8546 4.72587L40.9578 1.53727Z" fill="#31CB9E"/>
<path d="M14.0292 35.9263L7.59926 31.9086C7.37111 31.7661 7.0818 31.7661 6.85402 31.9086L0.424073 35.9263C0.221924 36.0527 0.09375 36.2837 0.09375 36.5225V43.2718C0.09375 43.5142 0.218262 43.7394 0.423707 43.868L6.85365 47.8948C7.07778 48.0351 7.37587 48.0347 7.60036 47.8945L14.0219 43.8676C14.227 43.7391 14.3515 43.5139 14.3515 43.2718V36.6254C14.3562 36.5917 14.3595 36.5573 14.3595 36.5225C14.3595 36.2801 14.2347 36.0549 14.0292 35.9263ZM7.22646 33.3339L12.326 36.5203L7.22646 39.7111L2.12366 36.5225L7.22646 33.3339ZM1.49964 37.7907L1.61133 37.8606L6.52333 40.9299V46.029L1.49964 42.8825V37.7907ZM7.92958 46.0283V40.9299L12.9449 37.7962V42.8832L7.92958 46.0283Z" fill="#31CB9E"/>
<path d="M47.7602 35.9263L41.3302 31.9086C41.1021 31.7661 40.8128 31.7661 40.585 31.9086L34.155 35.9263C33.9529 36.0527 33.8247 36.2837 33.8247 36.5225V43.2718C33.8247 43.5142 33.9496 43.7394 34.1547 43.868L40.5846 47.8948C41.0442 48.1812 41.6605 47.8447 41.6605 47.299V40.9299L46.6762 37.7962V42.8829L43.9673 44.5817C43.6381 44.7879 43.5388 45.2219 43.7454 45.5507C43.9516 45.88 44.3855 45.9792 44.7144 45.773L47.7525 43.8676C47.9575 43.7391 48.0821 43.5139 48.0821 43.2718V36.6261C48.0872 36.5921 48.0905 36.5573 48.0905 36.5225C48.0905 36.2801 47.9656 36.0549 47.7602 35.9263ZM40.9578 33.3339L46.0573 36.5203L40.9574 39.7111L35.8546 36.5225L40.9578 33.3339ZM35.231 37.7907L40.2546 40.9299V46.029L35.231 42.8825V37.7907Z" fill="#31CB9E"/>
<path d="M17.7877 8.44202H30.3495C31.2566 8.44202 31.2566 7.03613 30.3495 7.03613H17.7877C16.881 7.03613 16.881 8.44202 17.7877 8.44202Z" fill="#31CB9E"/>
<path d="M30.3964 39.5652H17.8346C16.9279 39.5652 16.9279 40.9714 17.8346 40.9714H30.3964C31.3035 40.9714 31.3035 39.5652 30.3964 39.5652Z" fill="#31CB9E"/>
<path d="M40.2162 19.7973V28.1788C40.2162 28.567 40.5308 28.8815 40.919 28.8815C41.3075 28.8815 41.6221 28.567 41.6221 28.1788V19.7973C41.6221 18.8902 40.2162 18.8902 40.2162 19.7973Z" fill="#31CB9E"/>
<path d="M6.56177 19.8285V28.21C6.56177 28.5982 6.87671 28.9131 7.26489 28.9131C7.65344 28.9131 7.96802 28.5982 7.96802 28.21V19.8285C7.96802 18.9214 6.56177 18.9214 6.56177 19.8285Z" fill="#31CB9E"/>
<path d="M34.0537 14.6354L30.8852 16.7316C30.3136 17.1095 30.5989 18.021 31.2738 18.021C31.4067 18.021 31.5415 17.9833 31.6609 17.9042L34.8293 15.808C35.5856 15.3078 34.8099 14.1348 34.0537 14.6354Z" fill="#31CB9E"/>
<path d="M16.5234 17.9042C16.6428 17.9833 16.7772 18.021 16.9105 18.021C17.585 18.021 17.8707 17.1095 17.299 16.7316L14.1306 14.6354C13.3743 14.1348 12.5987 15.3078 13.3549 15.808L16.5234 17.9042Z" fill="#31CB9E"/>
<path d="M13.7437 33.9576C13.877 33.9576 14.0114 33.9198 14.1308 33.8407L17.2992 31.7449C18.0558 31.2446 17.2798 30.0713 16.5236 30.5719L13.3551 32.6681C12.7835 33.0461 13.0691 33.9576 13.7437 33.9576Z" fill="#31CB9E"/>
<path d="M30.8851 31.7443L34.0536 33.8405C34.173 33.9196 34.3074 33.9573 34.4407 33.9573C35.1152 33.9573 35.4009 33.0458 34.8292 32.6679L31.6607 30.5717C30.9045 30.0711 30.1285 31.2441 30.8851 31.7443Z" fill="#31CB9E"/>
</g>
<defs>
<clipPath id="clip0_225_4105">
<rect width="48" height="48" fill="white"/>
</clipPath>
</defs>
</svg>
