<svg width="60" height="60" viewBox="0 0 60 60" fill="none" xmlns="http://www.w3.org/2000/svg">
<g clip-path="url(#clip0_241_5665)">
<path d="M29.9798 3.05176e-05C13.7039 3.05176e-05 0 13.1953 0 29.477C0 30.0029 0 60 0 60L29.974 59.9711C46.2499 59.9711 59.4509 46.2673 59.4509 29.9914C59.4509 13.7155 46.2383 3.05176e-05 29.9798 3.05176e-05Z" fill="#231F20"/>
<path d="M30.2688 11.4093C27.1043 11.4112 23.9946 12.2347 21.2439 13.7993C18.4933 15.3638 16.196 17.6158 14.577 20.3348C12.9579 23.0537 12.0727 26.1465 12.0078 29.3103C11.9429 32.4741 12.7006 35.6006 14.2068 38.3836L10.9008 49.0184L22.7724 46.3366C25.2566 47.4558 27.9597 48.0053 30.6837 47.9446C33.4077 47.884 36.0836 47.2149 38.5156 45.9863C40.9475 44.7577 43.0739 43.0007 44.7389 40.8439C46.4039 38.6872 47.5655 36.1854 48.1386 33.5217C48.7116 30.8579 48.6816 28.0997 48.0507 25.4491C47.4199 22.7985 46.2041 20.3225 44.4926 18.2025C42.781 16.0825 40.6169 14.3722 38.1588 13.1968C35.7007 12.0214 33.0108 11.4107 30.2862 11.4093H30.2688Z" fill="#FFF9AE"/>
<path d="M44.7645 18.5647C47.2272 21.7936 48.5436 25.7511 48.5057 29.8117C48.4677 33.8723 47.0776 37.8045 44.555 40.9868C42.0324 44.169 38.5212 46.4198 34.5764 47.3834C30.6316 48.3471 26.4781 47.9686 22.7724 46.3077L10.9008 49.0242L22.9863 47.5966C26.8563 49.8637 31.4253 50.6274 35.8222 49.7423C40.2192 48.8572 44.1368 46.3851 46.8282 42.7972C49.5197 39.2093 50.7968 34.7565 50.4162 30.2875C50.0356 25.8185 48.0239 21.6458 44.7645 18.5647Z" fill="#00AEEF"/>
<path d="M41.4007 15.1951C44.1869 18.1492 45.9091 21.9475 46.2953 25.9898C46.6814 30.0321 45.7094 34.0878 43.5329 37.516C41.3565 40.9441 38.0996 43.5492 34.2771 44.9195C30.4546 46.2897 26.2844 46.3471 22.4257 45.0824L10.9008 49.0242L22.7724 46.3366C26.8568 48.1815 31.4768 48.4604 35.7534 47.12C40.0299 45.7797 43.6644 42.9138 45.965 39.0677C48.2657 35.2216 49.0719 30.6639 48.2303 26.2619C47.3887 21.86 44.9579 17.9212 41.4007 15.1951Z" fill="#00A94F"/>
<path d="M15.2992 38.7882C13.6937 34.9184 13.4671 30.6143 14.6573 26.5973C15.8475 22.5802 18.3822 19.0943 21.8366 16.7236C25.2911 14.3529 29.4553 13.2415 33.6317 13.5756C37.808 13.9098 41.7426 15.6692 44.7761 18.559C41.9845 14.8954 37.9121 12.4215 33.3742 11.6325C28.8364 10.8434 24.1679 11.7974 20.3035 14.3036C16.439 16.8098 13.6638 20.6831 12.5333 25.1481C11.4028 29.6132 12.0005 34.3405 14.2068 38.3837L10.9008 49.0185L15.2992 38.7882Z" fill="#F15D22"/>
<path d="M14.2065 38.3836C12.2143 34.7038 11.5457 30.4517 12.3123 26.338C13.079 22.2244 15.2346 18.4986 18.4186 15.7835C21.6027 13.0684 25.6223 11.5286 29.8054 11.4215C33.9885 11.3144 38.0816 12.6465 41.4004 15.1951C38.2367 11.8638 33.934 9.84676 29.3497 9.54578C24.7654 9.2448 20.2359 10.682 16.6638 13.571C13.0917 16.4601 10.7391 20.5889 10.0749 25.1348C9.41058 29.6807 10.4834 34.31 13.0795 38.1004L10.9063 49.0242L14.2065 38.3836Z" fill="#E31B23"/>
</g>
<defs>
<clipPath id="clip0_241_5665">
<rect width="60" height="60" fill="white"/>
</clipPath>
</defs>
</svg>
