<svg width="148" height="68" viewBox="0 0 148 68" fill="none" xmlns="http://www.w3.org/2000/svg">
<path d="M5.34799 54.7778C7.37873 54.7778 9.01031 55.3679 10.2427 56.5479C11.4751 57.728 12.0913 59.2837 12.0913 61.2152C12.0913 63.1566 11.4751 64.7129 10.2427 65.8842C9.01031 67.0556 7.37873 67.6412 5.34799 67.6412H0.163696V54.7778H5.34799ZM2.15463 56.6428V65.7697H5.3349C6.81597 65.7697 7.96658 65.352 8.78673 64.5166C9.60688 63.6812 10.018 62.5796 10.0202 61.212C10.0202 59.828 9.60906 58.7226 8.78673 57.8959C7.9644 57.0692 6.81379 56.6515 5.3349 56.6428H2.15463Z" fill="white"/>
<path d="M24.7483 67.6379H14.9458V54.7778H24.7483V56.6084H16.9564V60.2419H24.7483V62.0725H16.9564V65.8073H24.7483V67.6379Z" fill="white"/>
<path d="M37.7035 62.1396H30.0849V67.6314H28.0743V54.7778H37.7035V56.6084H30.0849V60.3057H37.7035V62.1396Z" fill="white"/>
<path d="M42.5622 67.6379H40.5516V54.7778H42.5622V67.6379Z" fill="white"/>
<path d="M63.854 67.6379H61.7077L60.3269 64.3448H53.8666L52.4859 67.6379H50.4148L55.9263 54.7631H58.3426L63.854 67.6379ZM54.6404 62.5141H59.5711L57.0943 56.6428L54.6404 62.5141Z" fill="white"/>
<path d="M75.3007 67.6379H65.683V54.7778H67.6936V65.773H75.3007V67.6379Z" fill="white"/>
<path d="M86.8683 67.6379H77.2457V54.7778H79.2563V65.773H86.8683V67.6379Z" fill="white"/>
<path d="M90.8193 67.6379H88.8087V54.7778H90.8193V67.6379Z" fill="white"/>
<path d="M106.107 67.6379H103.962L102.582 64.3448H96.1213L94.7406 67.6379H92.6678L98.1793 54.7631H100.596L106.107 67.6379ZM96.8853 62.5141H101.818L99.3507 56.6428L96.8853 62.5141Z" fill="white"/>
<path d="M119.613 67.6494H117.752L109.947 58.1037V67.6379H107.938V54.7631H109.799L117.624 64.3202V54.7778H119.622L119.613 67.6494Z" fill="white"/>
<path d="M129.183 54.5781C130.301 54.5647 131.405 54.8218 132.401 55.3274C133.337 55.7881 134.12 56.5089 134.657 57.4034L132.969 58.4357C132.576 57.8241 132.027 57.3283 131.379 56.9993C130.7 56.6496 129.946 56.4721 129.183 56.4824C127.852 56.4824 126.746 56.9246 125.867 57.8091C124.988 58.6936 124.552 59.824 124.559 61.2004C124.559 62.6182 124.998 63.7634 125.877 64.6359C126.756 65.5084 127.858 65.9446 129.182 65.9446C129.943 65.9545 130.696 65.7817 131.377 65.4408C132.028 65.11 132.58 64.6141 132.979 64.0028L134.615 65.1578C134.03 66.0032 133.243 66.6878 132.324 67.1487C131.352 67.6314 130.279 67.8753 129.193 67.8603C127.245 67.8603 125.638 67.2381 124.372 65.9937C123.106 64.7493 122.473 63.1564 122.474 61.2151C122.474 59.2815 123.107 57.6968 124.372 56.4611C125.637 55.2254 127.241 54.5978 129.183 54.5781Z" fill="white"/>
<path d="M147.071 67.6379H137.275V54.7778H147.071V56.6084H139.286V60.2419H147.071V62.0725H139.286V65.8073H147.071V67.6379Z" fill="white"/>
<path fill-rule="evenodd" clip-rule="evenodd" d="M0 67.7934V54.6142H5.34788C7.40917 54.6142 9.08273 55.2146 10.3506 56.4269C11.6184 57.6391 12.2483 59.2308 12.2483 61.2071C12.2483 63.1833 11.6184 64.7832 10.3506 65.9889C9.08273 67.1946 7.4059 67.7885 5.34788 67.7885L0 67.7934ZM10.2426 56.5446C9.00912 55.3668 7.37754 54.7778 5.34788 54.7778H0.163594V67.6412H5.35443C7.38517 67.6412 9.01675 67.0555 10.2492 65.8842C11.4816 64.7129 12.0978 63.1566 12.0978 61.2152C12.0934 59.2728 11.475 57.716 10.2426 56.5446ZM8.67048 58.0055C7.88523 57.2088 6.77933 56.7998 5.32989 56.7998H2.31158V65.6159H5.3348C6.78424 65.6159 7.89013 65.2069 8.67538 64.4086C9.46063 63.6103 9.86307 62.5485 9.86307 61.2136C9.86307 59.8787 9.46391 58.7973 8.67048 58.0055ZM2.14962 65.7697V56.6428H5.32989C6.81096 56.6428 7.96157 57.0605 8.78172 57.8959C9.60187 58.7313 10.013 59.8367 10.0152 61.212C10.0152 62.5796 9.60405 63.6812 8.78172 64.5166C7.95939 65.352 6.80878 65.7697 5.32989 65.7697H2.14962ZM24.9006 67.7934H14.7889V54.6142H24.9055V56.7573H17.1136V60.0815H24.9055V62.223H17.1136V65.6454H24.9055L24.9006 67.7934ZM16.9516 65.8073V62.0725H24.7436V60.2419H16.9565V56.6052H24.7485V54.7778H14.9459V67.6412H24.7485V65.8073H16.9516ZM37.8605 62.3031H30.2403V67.795H27.9173V54.6142H37.8605V56.7573H30.2403V60.1421H37.8605V62.3031ZM30.0849 60.3024V56.6052H37.7035V54.7778H28.0743V67.6412H30.0849V62.1396H37.7035V60.3024H30.0849ZM42.7193 67.7934H40.3962V54.6142H42.7193V67.7934ZM64.0912 67.7934H61.6046L60.2238 64.5002H53.9713L52.5905 67.7934H50.1775L55.8215 54.6142H58.439L64.0912 67.7934ZM53.8666 64.3448H60.3269L61.7076 67.6379H63.854L58.3425 54.7631H55.9262L50.4147 67.6379H52.4858L53.8666 64.3448ZM75.461 67.7934H65.5308V54.6142H67.8538V65.6094H75.461V67.7934ZM67.6968 65.7697V54.7778H65.6829V67.6412H75.3006V65.7697H67.6968ZM87.0238 67.7934H77.0887V54.6142H79.4117V65.6094H87.0205L87.0238 67.7934ZM79.2596 65.7697V54.7778H77.2458V67.6412H86.8684V65.7697H79.2596ZM90.9795 67.7934H88.6564V54.6142H90.9795V67.7934ZM106.347 67.7934H103.861L102.48 64.5002H96.2243L94.8436 67.7934H92.4305L98.0762 54.6142H100.694L106.347 67.7934ZM96.1245 64.3448H102.585L103.966 67.6379H106.107L100.596 54.7631H98.1792L92.6678 67.6379H94.7405L96.1245 64.3448ZM119.774 67.8064H117.68L110.099 58.5405V67.7901H107.776V54.6142H109.868L117.46 63.8818V54.6142H119.772L119.774 67.8064ZM117.624 64.3203L109.807 54.7631H107.938V67.6379H109.947V58.1037L117.752 67.6494H119.613V54.7778H117.624V64.3203ZM134.88 57.4493L132.928 58.6419L132.845 58.5127C132.467 57.9239 131.939 57.4466 131.315 57.1303C130.657 56.7945 129.927 56.6259 129.188 56.6395C127.896 56.6395 126.831 57.0681 125.984 57.9205C125.136 58.7728 124.722 59.8525 124.722 61.2022C124.722 62.5829 125.149 63.6839 125.995 64.5182C126.841 65.3525 127.903 65.7746 129.188 65.7746C129.927 65.7844 130.656 65.616 131.315 65.2838C131.941 64.965 132.473 64.4879 132.858 63.8998L132.948 63.764L134.834 65.1022L134.746 65.2298C134.146 66.0962 133.337 66.7977 132.395 67.2699C131.4 67.7635 130.302 68.0136 129.192 67.9995C127.207 67.9995 125.558 67.3631 124.261 66.0871C122.962 64.8029 122.316 63.1686 122.316 61.1989C122.316 59.2292 122.97 57.5998 124.261 56.332C125.552 55.0641 127.206 54.4212 129.192 54.4212C130.334 54.4071 131.463 54.6698 132.482 55.1868C133.442 55.6595 134.247 56.3975 134.801 57.3135L134.88 57.4493ZM132.41 55.3226C131.413 54.817 130.309 54.5599 129.192 54.5733C127.244 54.5733 125.637 55.1961 124.371 56.4416C123.104 57.6871 122.472 59.2717 122.473 61.1956C122.473 63.1282 123.105 64.7211 124.371 65.9742C125.636 67.2273 127.243 67.8495 129.192 67.8408C130.277 67.8558 131.351 67.6118 132.323 67.1292C133.241 66.6683 134.029 65.9836 134.613 65.1382L132.977 63.9833C132.949 64.0274 132.92 64.07 132.891 64.1125C132.499 64.6651 131.979 65.1143 131.376 65.4212C130.695 65.7622 129.942 65.935 129.18 65.9251C127.857 65.9251 126.756 65.4889 125.876 64.6164C124.996 63.7439 124.556 62.5987 124.557 61.1809C124.557 59.7969 124.993 58.6664 125.866 57.7896C126.738 56.9127 127.844 56.4705 129.182 56.4628C129.945 56.4526 130.699 56.6301 131.377 56.9798C132.026 57.3088 132.575 57.8046 132.967 58.4162L134.656 57.3839C134.633 57.3446 134.608 57.3053 134.584 57.2677L134.574 57.2514C134.038 56.4246 133.287 55.7595 132.401 55.3275L132.41 55.3226ZM147.234 67.7934H137.119V54.6142H147.234V56.7573H139.443V60.0815H147.234V62.223H139.443V65.6454H147.234V67.7934ZM139.285 65.8073V62.0725H147.071V60.2419H139.285V56.6052H147.071V54.7778H137.275V67.6412H147.071V65.8073H139.285ZM59.5629 62.5142H54.6404L57.0943 56.6428L59.5629 62.5142ZM57.0943 57.0469L59.3241 62.3588H54.8661L57.0943 57.0469ZM101.814 62.5142L99.3506 56.6428L96.8852 62.5142H101.814ZM97.1175 62.3588H101.579L99.3506 57.0469L97.1175 62.3588ZM42.5589 67.6379V54.7778H40.5517V67.6412L42.5589 67.6379ZM90.8192 67.6379V54.7778H88.8086V67.6412L90.8192 67.6379Z" fill="white"/>
<path d="M41.0455 0H58.7137C63.0857 0.043413 67.264 1.81067 70.3403 4.91765C73.4166 8.02464 75.1422 12.2202 75.1422 16.5925C75.1422 20.9648 73.4166 25.1604 70.3403 28.2674C67.264 31.3744 63.0857 33.1416 58.7137 33.185H41.0455C51.7397 24.7076 51.7397 8.48071 41.0455 0Z" fill="white"/>
<path d="M108.626 29.1999C101.003 20.9678 95.6271 10.9118 93.0163 0C90.4751 10.9027 85.1037 20.9425 77.4438 29.1066L73.6173 33.1834C86.0606 28.3353 99.8705 28.3353 112.314 33.1834L108.626 29.1999Z" fill="white"/>
</svg>
