<svg width="24" height="24" viewBox="0 0 24 24" fill="none" xmlns="http://www.w3.org/2000/svg">
<g clip-path="url(#clip0_648_3849)">
<path d="M6.78495 0.00151788C12.5225 -0.000505959 18.2605 -0.000505959 23.9988 0.00151788C24.0006 2.13418 24.0006 4.26648 23.9988 6.39841C18.2611 6.40043 12.5231 6.40043 6.78495 6.39841C6.78311 4.26574 6.78311 2.13345 6.78495 0.00151788Z" fill="#02A6C2"/>
<path d="M0.00719989 8.80509C1.85829 8.79405 3.7097 8.79405 5.56144 8.80509C5.57104 10.9337 5.57104 13.0627 5.56144 15.192C3.70978 15.203 1.85837 15.2032 0.00719989 15.1926C-0.00239996 13.0636 -0.00239996 10.9344 0.00719989 8.80509Z" fill="#5FCADE"/>
<path d="M6.78932 8.80505C10.9306 8.79493 15.0716 8.79493 19.2124 8.80505C19.2212 10.9337 19.2212 13.0627 19.2124 15.192C15.0712 15.2019 10.9301 15.2019 6.78932 15.192C6.78068 13.0633 6.78068 10.9343 6.78932 8.80505Z" fill="#5FCADE"/>
<path d="M6.7942 17.6106C8.64217 17.5875 10.4898 17.5875 12.3372 17.6106C12.3564 19.7342 12.3566 21.8589 12.338 23.9845C10.49 24.0055 8.64241 24.0052 6.79516 23.9834C6.77596 21.86 6.77564 19.7357 6.7942 17.6106Z" fill="#ABEBF4"/>
</g>
<defs>
<clipPath id="clip0_648_3849">
<rect width="24" height="24" fill="white"/>
</clipPath>
</defs>
</svg>
