<svg width="120" height="24" viewBox="0 0 120 24" fill="none" xmlns="http://www.w3.org/2000/svg">
<g clip-path="url(#clip0_248_1241)">
<path d="M10.525 11.7009C10.525 12.3388 11.0234 12.8371 11.6612 12.8371C12.2991 12.8371 12.7974 12.3388 12.7974 11.7009C12.7974 11.063 12.2991 10.5647 11.6612 10.5647C11.0234 10.5846 10.525 11.083 10.525 11.7009ZM20.0533 10.5846C19.4154 10.5846 18.9171 11.083 18.9171 11.7208C18.9171 12.3587 19.4154 12.8571 20.0533 12.8571C20.6911 12.8571 21.1895 12.3587 21.1895 11.7208C21.1895 11.083 20.6911 10.5846 20.0533 10.5846ZM20.0533 19.1162C19.4154 19.1162 18.9171 19.6145 18.9171 20.2524C18.9171 20.8903 19.4154 21.3886 20.0533 21.3886C20.6911 21.3886 21.1895 20.8903 21.1895 20.2524C21.1895 19.6145 20.6911 19.1162 20.0533 19.1162Z" fill="#F3BB2D"/>
<path d="M22.4651 1.19606C21.3289 -0.219222 19.2957 -0.27902 18.0997 0.837259L17.9601 0.976797L17.6811 1.19606C16.5448 2.113 14.8505 2.03328 13.794 0.976797V0.897057C13.4352 0.538253 12.9568 0.259185 12.4585 0.11965C12.3787 0.11965 12.2392 0.039917 12.1794 0.039917H11.0432C10.9635 0.039917 10.9037 0.0399158 10.8239 0.11965H10.6844C10.6047 0.11965 10.5449 0.199383 10.4651 0.199383C10.4651 0.199383 10.3854 0.199388 10.3854 0.279122C10.3056 0.279122 10.2458 0.358855 10.1661 0.358855C10.1661 0.358855 10.0864 0.358854 10.0864 0.438588C10.0066 0.518322 9.94684 0.518325 9.86711 0.578125C9.86711 0.578125 9.78738 0.578124 9.78738 0.657858C9.70764 0.737593 9.64784 0.737589 9.56811 0.79739L9.48837 0.877129L9.34884 1.01666L9.06977 1.23593C7.93356 2.15287 6.2392 2.07314 5.26246 1.01666C5.26246 1.01666 5.18272 1.01666 5.18272 0.936927L5.04319 0.79739C4.62458 0.438586 4.12625 0.159516 3.56811 0.0997152H2.29236C2.29236 0.179449 2.21262 0.179452 2.15282 0.239253H2.13289C1.77409 0.378787 1.43522 0.51832 1.13621 0.79739L1.05648 0.877129L0.837209 1.09639C0.55814 1.37546 0.418605 1.73427 0.27907 2.01334C0.27907 2.09307 0.199336 2.15287 0.199336 2.23261C0.199336 2.31234 0.119601 2.37214 0.119601 2.51168C0.0398672 3.01002 0.0398671 3.50835 0.199336 3.98676C0.199336 4.06649 0.27907 4.12629 0.27907 4.20603V4.28576C0.27907 4.3655 0.358804 4.4253 0.358804 4.50503C0.438538 4.58477 0.438538 4.64457 0.498339 4.7841C0.637874 4.86384 0.777409 5.00338 0.857143 5.06318L0.996678 5.20271L1.13621 5.34224C2.19269 6.39872 2.19269 8.23261 1.05648 9.36882C0.916944 9.50835 0.697675 9.72762 0.637874 9.86716C0.55814 9.94689 0.55814 10.0067 0.498339 10.1462V10.226C0.418605 10.3057 0.418605 10.3655 0.358804 10.4452V10.525C0.358804 10.6047 0.27907 10.6645 0.27907 10.7442V10.824C0.27907 10.9037 0.27907 10.9635 0.199336 11.0432V12.0997C0.199336 12.1795 0.199336 12.2393 0.27907 12.319V12.3987C0.418605 12.8971 0.697675 13.3954 1.11628 13.814C2.25249 14.9502 2.25249 16.7841 1.11628 17.9004L1.03655 17.9801L0.89701 18.1197V18.1994C0.817276 18.2791 0.757475 18.3389 0.757475 18.4187C0.757475 18.4187 0.757475 18.4984 0.677741 18.4984C0.598007 18.5781 0.598007 18.6379 0.538206 18.7177L0.458472 18.7974C0.458472 18.8771 0.378738 18.8771 0.378738 18.9369C0.378738 18.9967 0.299003 19.0167 0.299003 19.0765C0.299003 19.1562 0.299003 19.1562 0.219269 19.216C0.0797343 19.4951 0 19.8539 0 20.1329V20.6911C0.0797342 20.9104 0.0797343 21.1097 0.219269 21.2492C0.219269 21.329 0.299003 21.3888 0.299003 21.3888C0.299003 21.3888 0.299004 21.4685 0.378738 21.4685C0.378738 21.5482 0.458472 21.608 0.458472 21.6878C0.458472 21.6878 0.458472 21.7675 0.538206 21.7675C0.61794 21.907 0.677741 21.9868 0.757475 22.0466C0.757475 22.0466 0.757475 22.1263 0.837209 22.1263C0.837209 22.1263 0.837209 22.206 0.916944 22.206C0.916944 22.2858 0.996678 22.2858 0.996678 22.2858L1.07641 22.3655C1.15615 22.4452 1.21595 22.4452 1.21595 22.505L1.29568 22.5848C1.29568 22.5848 1.37542 22.5848 1.37542 22.6645C1.45515 22.7442 1.51495 22.804 1.59468 22.804C1.59468 22.804 1.67442 22.804 1.67442 22.8838C1.75415 22.9635 1.81395 22.9635 1.89369 23.0233H1.93355C2.01329 23.103 2.07309 23.103 2.21262 23.103C2.29236 23.103 2.43189 23.1828 2.49169 23.1828H2.57143C2.65116 23.1828 2.71096 23.1828 2.7907 23.2625H3.42857C3.64784 23.2625 3.78738 23.1828 3.98671 23.1828H4.06645C4.14618 23.1828 4.20598 23.103 4.28571 23.103H4.32558C4.40532 23.103 4.46512 23.0233 4.54485 23.0233H4.62458C4.76412 22.9436 4.98339 22.804 5.12292 22.7442L5.34219 22.525L5.42193 22.4452C6.55814 21.2492 8.39203 21.2492 9.50831 22.4452C10.7841 23.7808 12.897 23.721 14.093 22.226C14.9302 21.1695 14.9302 19.6147 14.093 18.4785C12.9568 17.0632 10.9236 17.0034 9.72757 18.1197L9.58804 18.2592L9.30897 18.4785C8.17276 19.3954 6.47841 19.3157 5.42193 18.2592L5.28239 18.1197L5.06312 17.8406C4.14618 16.7044 4.22591 15.01 5.28239 13.9535C5.92027 13.3954 6.19934 12.618 6.19934 11.8406V11.6213C6.19934 10.9236 5.92027 10.206 5.36213 9.70769C5.36213 9.62796 5.28239 9.62796 5.28239 9.56815L5.06312 9.28909C4.14618 8.15287 4.22591 6.45852 5.28239 5.40204L5.36213 5.32231L5.44186 5.24258C6.57807 4.04656 8.41196 4.04656 9.52824 5.24258L9.60797 5.32231L9.68771 5.40204L9.82724 5.54158C9.90698 5.54158 9.90698 5.62131 9.96678 5.62131C10.0266 5.62131 10.0465 5.70105 10.1063 5.70105C10.1661 5.70105 10.186 5.78078 10.2458 5.78078C10.3056 5.78078 10.3256 5.86052 10.3854 5.86052C10.4452 5.86052 10.4651 5.94025 10.5249 5.94025C10.5847 5.94025 10.6047 6.01998 10.6645 6.01998C10.7243 6.01998 10.7442 6.01998 10.804 6.09972C10.8837 6.09972 10.8837 6.09972 10.9435 6.17945H12.1395C12.2193 6.17945 12.2791 6.17945 12.3588 6.09972H12.4983C12.5781 6.09972 12.6379 6.01998 12.7176 6.01998H12.7973C12.8771 6.01998 12.9369 5.94025 13.0764 5.88045C13.3555 5.74091 13.6346 5.52165 13.8538 5.32231L13.9336 5.24258C15.0698 4.04656 16.9037 4.04656 18.0199 5.24258C19.2159 6.65786 21.4086 6.57812 22.5448 5.10304C23.3023 3.80736 23.3023 2.25254 22.4651 1.19606Z" fill="#F3BB2D"/>
<path d="M38.5515 9.94685C38.1329 9.52824 37.7741 9.24917 37.2758 9.0299C36.8572 8.81063 36.3588 8.6711 35.721 8.6711C35.1628 8.6711 34.5848 8.81063 34.1661 9.0299C33.7475 9.24917 33.3887 9.52824 33.1097 9.94685C32.8306 10.3057 32.6113 10.7243 32.4718 11.2226C32.3323 11.7209 32.2525 12.2193 32.2525 12.6977C32.2525 13.1761 32.3323 13.6944 32.5316 14.1728C32.6711 14.6711 32.9502 15.01 33.2293 15.3688C33.5083 15.7276 33.9269 16.0066 34.3655 16.206C34.7841 16.4253 35.2824 16.4851 35.8406 16.4851C36.4784 16.4851 36.9768 16.3455 37.3954 16.1263C37.814 15.907 38.2326 15.6279 38.5914 15.2093L40.0665 16.7641C39.5083 17.402 38.8705 17.8206 38.1529 18.0997C37.4552 18.3787 36.6778 18.5183 35.8206 18.5183C34.9834 18.5183 34.1263 18.3787 33.4286 18.0997C32.7309 17.8206 32.0931 17.402 31.5947 16.9037C31.0964 16.4053 30.6778 15.7674 30.3987 15.0698C30.1196 14.3721 29.9801 13.515 29.9801 12.6777C29.9801 11.8405 30.1196 10.9834 30.3987 10.2857C30.6778 9.58804 31.0964 8.95017 31.5947 8.37209C32.0931 7.87375 32.7309 7.45515 33.4286 7.17608C34.1263 6.89701 34.9834 6.75748 35.8206 6.75748C36.6578 6.75748 37.4353 6.89701 38.1529 7.17608C38.9303 7.45515 39.5681 7.95349 40.1263 8.51163L38.5515 9.94685ZM43.3356 12.5581C43.3356 13.1163 43.4153 13.6944 43.6147 14.113C43.7542 14.6113 44.0333 15.0299 44.3123 15.3887C44.5914 15.7475 45.01 16.0266 45.4485 16.1661C45.8671 16.3854 46.4452 16.4452 47.0034 16.4452C47.5615 16.4452 48.0598 16.3654 48.5582 16.1661C48.9768 15.9468 49.3954 15.6678 49.6944 15.3887C49.9735 15.0299 50.2525 14.6113 50.3921 14.113C50.5316 13.6146 50.6711 13.1163 50.6711 12.5581C50.6711 12 50.5914 11.4219 50.3921 11.0033C50.2525 10.505 49.9735 10.0864 49.6944 9.72758C49.4153 9.36877 48.9967 9.08971 48.5582 8.95017C48.1396 8.7309 47.5615 8.6711 47.0034 8.6711C46.4452 8.6711 45.9469 8.75084 45.4485 8.95017C45.0299 9.16944 44.6113 9.44851 44.3123 9.72758C44.0333 10.0864 43.7542 10.505 43.6147 11.0033C43.4751 11.5017 43.3356 12 43.3356 12.5581ZM41.0831 12.5581C41.0831 11.7209 41.2226 10.9435 41.5017 10.2259C41.7808 9.52824 42.1994 8.89037 42.7774 8.31229C43.3356 7.75416 43.9137 7.31562 44.6911 7.03655C45.3887 6.75748 46.1661 6.53821 47.0233 6.53821C47.8804 6.53821 48.6379 6.67774 49.3555 7.03655C50.0532 7.31562 50.6911 7.73422 51.2691 8.31229C51.8273 8.87043 52.1861 9.50831 52.5449 10.2259C52.824 10.9236 52.9635 11.701 52.9635 12.5581C52.9635 13.3953 52.824 14.1728 52.5449 14.8904C52.2658 15.588 51.8472 16.2259 51.2691 16.804C50.711 17.3621 50.1329 17.7209 49.3555 18.0797C48.6578 18.3588 47.8804 18.5781 47.0233 18.5781C46.1861 18.5781 45.4087 18.4385 44.6911 18.0797C43.9934 17.8007 43.3555 17.3821 42.7774 16.804C42.2193 16.2459 41.8605 15.6678 41.5017 14.8904C41.3024 14.1728 41.0831 13.3953 41.0831 12.5581ZM55.1362 18.2791H57.2492V6.99668H55.1362V18.2791ZM54.6379 2.89037C54.6379 2.47176 54.7774 2.11296 55.0565 1.75416C55.3356 1.47509 55.6944 1.25582 56.113 1.25582C56.5316 1.25582 56.8904 1.39535 57.1695 1.75416C57.4485 2.03323 57.5881 2.45183 57.5881 2.89037C57.5881 3.3289 57.4485 3.66778 57.1695 4.02658C56.8904 4.30565 56.5316 4.52492 56.113 4.52492C55.6944 4.52492 55.3356 4.38538 55.0565 4.02658C54.7774 3.72758 54.6379 3.30897 54.6379 2.89037ZM60.1994 6.97674H62.3323V8.7309H62.412C62.6911 8.09303 63.1097 7.59469 63.8273 7.25582C64.4651 6.89701 65.2426 6.69768 66.1595 6.69768C66.7176 6.69768 67.216 6.77741 67.7143 6.97674C68.2127 7.11628 68.6313 7.39535 68.9901 7.75416C69.3489 8.11296 69.6279 8.53156 69.907 9.0897C70.1263 9.64784 70.2658 10.2857 70.2658 11.0631V18.3389H68.113V11.6412C68.113 11.1429 68.0333 10.6445 67.8937 10.3056C67.7542 9.94685 67.5349 9.60797 67.3356 9.38871C67.1163 9.16944 66.8372 8.9701 66.4984 8.89037C66.2193 8.81063 65.8605 8.75084 65.5017 8.75084C65.0831 8.75084 64.6645 8.83056 64.3057 8.9701C63.9469 9.10963 63.608 9.3289 63.309 9.66777C63.0299 9.94684 62.8107 10.3654 62.6711 10.8638C62.5316 11.3621 62.4519 11.9203 62.4519 12.5581V18.4186H60.3389V6.99668L60.1994 6.97674ZM78.0598 16.505C78.618 16.505 79.1163 16.4253 79.6147 16.2259C80.113 16.0066 80.4519 15.7276 80.8107 15.3887C81.0897 15.0299 81.3688 14.6113 81.5083 14.113C81.6479 13.6146 81.7874 13.1163 81.7874 12.4983C81.7874 11.9402 81.7077 11.3621 81.5083 10.8837C81.3688 10.3854 81.0897 9.96678 80.8107 9.60798C80.4519 9.24917 80.113 8.9701 79.6147 8.77076C79.1163 8.55149 78.618 8.4917 78.0598 8.4917C77.5017 8.4917 77.0034 8.57143 76.505 8.77076C76.0067 8.99003 75.6678 9.2691 75.309 9.60798C75.0299 9.96678 74.7509 10.3854 74.6113 10.8837C74.4718 11.3821 74.3323 11.8804 74.3323 12.4983C74.3323 13.0565 74.412 13.6346 74.6113 14.113C74.7509 14.6113 75.0299 15.0299 75.309 15.3887C75.5881 15.7475 76.0067 16.0266 76.505 16.2259C76.9236 16.3655 77.5017 16.505 78.0598 16.505ZM83.9203 18.1993H81.8073V16.5847H81.7276C81.309 17.2226 80.7309 17.6412 80.0332 18C79.3356 18.3588 78.5582 18.4983 77.7808 18.4983C76.9436 18.4983 76.0864 18.3588 75.3887 18.0797C74.6911 17.8007 74.0532 17.3821 73.5548 16.804C73.0565 16.2459 72.6379 15.608 72.4186 14.8904C72.1396 14.1927 72 13.4153 72 12.5581C72 11.701 72.1396 10.9435 72.4186 10.1661C72.6977 9.46844 73.0565 8.83057 73.5548 8.2525C74.0532 7.69436 74.6911 7.25581 75.3887 6.97674C76.0864 6.69767 76.8638 6.55814 77.7808 6.55814C78.5582 6.55814 79.3356 6.69768 80.0332 7.05648C80.7309 7.41529 81.309 7.89369 81.6479 8.47176H81.7276V0H83.8406V18.1993H83.9203ZM94.7043 11.6412C94.7043 11.1429 94.6246 10.7243 94.4851 10.3056C94.3455 9.88705 94.1263 9.52824 93.8472 9.24917C93.5681 8.9701 93.2093 8.75084 92.8505 8.5515C92.4319 8.41196 92.0133 8.27242 91.4352 8.27242C90.9369 8.27242 90.4386 8.35216 90.02 8.5515C89.6014 8.77077 89.2425 8.9701 88.8837 9.32891C88.6047 9.60798 88.3256 9.96678 88.1861 10.3854C88.0465 10.804 87.907 11.1628 87.907 11.5216H94.6844L94.7043 11.6412ZM87.9469 13.3954C87.9469 13.8937 88.0864 14.3123 88.3057 14.7309C88.5249 15.1495 88.804 15.5083 89.1429 15.7874C89.5017 16.0664 89.9203 16.2857 90.3389 16.4253C90.8372 16.5648 91.2558 16.6445 91.7542 16.6445C92.3921 16.6445 93.0299 16.505 93.5083 16.1462C94.0067 15.8671 94.4253 15.4485 94.8439 14.9502L96.4585 16.2259C95.2625 17.7807 93.5681 18.5581 91.4552 18.5581C90.5382 18.5581 89.7608 18.4186 89.0632 18.1395C88.3655 17.8605 87.7276 17.4419 87.2293 16.8638C86.7309 16.3056 86.3123 15.7276 86.0931 14.9502C85.814 14.2525 85.6744 13.4751 85.6744 12.6179C85.6744 11.7807 85.814 11.0033 86.0931 10.2857C86.3721 9.58804 86.7907 8.95017 87.2891 8.37209C87.7874 7.81395 88.4253 7.45515 89.123 7.09635C89.8206 6.81728 90.598 6.67774 91.4552 6.67774C92.4519 6.67774 93.2891 6.81728 93.9867 7.17608C94.6844 7.53488 95.2625 7.95349 95.6811 8.51163C96.0997 9.06977 96.4585 9.70764 96.6778 10.4253C96.897 11.1229 96.9568 11.8405 96.9568 12.6179V13.3954H87.9469ZM105.289 9.80731C105.01 9.52824 104.731 9.24917 104.372 9.0299C104.013 8.81063 103.535 8.6711 103.037 8.6711C102.538 8.6711 102.12 8.81063 101.701 9.0299C101.342 9.24917 101.143 9.52824 101.143 9.94685C101.143 10.3057 101.282 10.5847 101.502 10.7243C101.721 10.9435 102 11.0831 102.279 11.2226C102.558 11.3621 102.917 11.4419 103.196 11.5017C103.555 11.5814 103.834 11.6412 104.033 11.6412C104.452 11.7807 104.95 11.8605 105.309 12.0598C105.728 12.1993 106.086 12.4186 106.365 12.6977C106.645 12.9767 106.864 13.2558 107.063 13.6146C107.203 13.9734 107.342 14.392 107.342 14.9502C107.342 15.588 107.203 16.1462 106.924 16.5648C106.645 16.9834 106.286 17.402 105.867 17.701C105.449 18 104.95 18.1993 104.392 18.3389C103.834 18.4784 103.256 18.5581 102.777 18.5581C101.86 18.5581 101.023 18.4186 100.306 18.1395C99.608 17.8605 98.9701 17.3621 98.3921 16.5847L100.007 15.2492C100.365 15.608 100.704 15.887 101.143 16.1661C101.581 16.4452 102.06 16.5847 102.698 16.5847C102.977 16.5847 103.256 16.5847 103.535 16.505C103.814 16.4253 104.033 16.3655 104.233 16.2259C104.452 16.0864 104.591 15.9468 104.731 15.8073C104.87 15.588 104.95 15.3887 104.95 15.1694C104.95 14.8904 104.87 14.6113 104.671 14.392C104.452 14.1728 104.253 14.0332 103.973 13.8937C103.694 13.7542 103.415 13.6744 103.136 13.6146L102.299 13.3954C101.88 13.2558 101.382 13.1761 101.023 13.0365C100.605 12.897 100.246 12.6777 99.9668 12.4784C99.6877 12.2591 99.4087 11.9203 99.1894 11.5615C98.9701 11.2027 98.9103 10.7243 98.9103 10.2259C98.9103 9.66778 99.0499 9.0897 99.2691 8.6711C99.4884 8.25249 99.8273 7.89369 100.266 7.61462C100.684 7.33555 101.103 7.11628 101.601 6.97674C102.1 6.83721 102.658 6.75748 103.156 6.75748C103.934 6.75748 104.631 6.89701 105.349 7.17608C106.047 7.45515 106.625 7.95349 107.043 8.59136L105.289 9.80731ZM109.395 0.279075H111.508V11.701L116.312 6.89701H119.203L114.06 11.9801L119.701 18.0399H116.671L111.528 12.2591V18.0399H109.415V0.279075" fill="white"/>
</g>
<defs>
<clipPath id="clip0_248_1241">
<rect width="120" height="23.5216" fill="white"/>
</clipPath>
</defs>
</svg>
