<svg width="24" height="24" viewBox="0 0 24 24" fill="none" xmlns="http://www.w3.org/2000/svg">
<circle cx="12" cy="12" r="12" fill="#1D7A5F"/>
<g clip-path="url(#clip0_241_5953)">
<path d="M7.58238 8.14447C7.61988 8.15388 7.65419 8.17333 7.68154 8.20065L10.7369 11.2561L11.2898 10.7033L8.23436 7.64783C8.20696 7.62046 8.18759 7.58603 8.17812 7.54842L7.98582 6.78185L6.71104 6.05305L6.08679 6.67728L6.81581 7.95294L7.58238 8.14447Z" fill="white"/>
<path d="M10.2993 15.114L15.1477 10.2655C15.2008 10.2123 15.2779 10.191 15.3507 10.2091C15.9891 10.3727 16.6671 10.231 17.1867 9.82563C17.7063 9.42026 18.0085 8.79689 18.0051 8.13794C18.0051 8.09781 18.0039 8.05737 18.0013 8.01658L16.8736 9.14413C16.8164 9.20133 16.7317 9.22138 16.6549 9.19576L15.3723 8.76817C15.3084 8.74702 15.2583 8.69693 15.237 8.63312L14.8095 7.35049C14.7839 7.27379 14.8039 7.18903 14.8612 7.13178L15.9888 6.00414C15.3098 5.9619 14.6514 6.24719 14.2177 6.77137C13.784 7.29566 13.6273 7.99578 13.796 8.65485C13.8142 8.72782 13.793 8.80485 13.7398 8.85798L8.89144 13.7062C8.83825 13.7589 8.76128 13.7803 8.68836 13.7624C8.51957 13.7191 8.34598 13.6966 8.17162 13.696C7.25096 13.6899 6.42834 14.2703 6.12521 15.1398C5.82225 16.0092 6.10598 16.9752 6.83108 17.5427C7.55617 18.1101 8.56201 18.1535 9.33319 17.6504C10.1044 17.1474 10.4701 16.2094 10.2428 15.317C10.2247 15.2442 10.2461 15.167 10.2993 15.114ZM8.69195 16.6888H7.65144L7.13826 15.8337L7.65144 14.9786H8.69195L9.20502 15.8337L8.69195 16.6888ZM9.51696 14.1861L14.2199 9.48319L14.5221 9.78547L9.81918 14.4884L9.51696 14.1861Z" fill="white"/>
<path d="M16.2523 17.8885C16.7285 18.0675 17.2653 17.9514 17.625 17.5917C17.9848 17.2319 18.1009 16.695 17.9218 16.219L16.2523 17.8885Z" fill="white"/>
<path d="M17.6248 15.7559L15.2239 13.354C14.959 13.5766 14.568 13.5597 14.3232 13.3152C14.0784 13.0708 14.0611 12.6798 14.2833 12.4147L13.9433 12.0743L12.1079 13.9098L12.45 14.2518C12.7148 14.0292 13.106 14.0461 13.3506 14.2905C13.5954 14.535 13.6127 14.926 13.3905 15.1911L15.7894 17.5913C15.8156 17.6175 15.8432 17.6417 15.8711 17.6653L17.6989 15.8375C17.6753 15.8096 17.651 15.782 17.6248 15.7559ZM16.3574 16.6261L14.2197 14.4884L14.522 14.1861L16.6597 16.3239L16.3574 16.6261Z" fill="white"/>
</g>
<defs>
<clipPath id="clip0_241_5953">
<rect width="12" height="12" fill="white" transform="translate(6 6)"/>
</clipPath>
</defs>
</svg>
