<svg width="60" height="60" viewBox="0 0 60 60" fill="none" xmlns="http://www.w3.org/2000/svg">
<path d="M0 30C0 13.4266 13.4266 0 30 0C46.5734 0 60 13.4266 60 30C60 46.5734 46.5734 60 30 60C13.4266 59.965 0 46.5384 0 30Z" fill="#5865F2"/>
<path d="M43.4966 17.7972C40.9442 16.6433 38.2868 15.8042 35.5246 15.3496C35.1749 15.979 34.7903 16.7832 34.5106 17.4475C31.5735 16.993 28.6015 16.993 25.6644 17.4475C25.3498 16.7133 25.0001 16.014 24.6155 15.3496C21.8532 15.8042 19.1609 16.6433 16.6435 17.8322C11.6085 25.3496 10.2449 32.6573 10.9092 39.8951C13.8812 42.0979 17.1679 43.7762 20.6994 44.8252C21.5036 43.7412 22.2029 42.6224 22.7973 41.4336C21.6435 41.014 20.5595 40.4895 19.5106 39.8601C19.7903 39.6503 20.0351 39.4405 20.3148 39.2308C26.5036 42.1678 33.7064 42.1678 39.8952 39.2308C40.1749 39.4405 40.4197 39.6503 40.6994 39.8601C39.6504 40.4895 38.5316 41.014 37.3777 41.4336C37.9721 42.6224 38.6714 43.7412 39.4756 44.8252C43.0071 43.7412 46.3288 42.0979 49.2658 39.8951C50.0351 31.5035 47.8672 24.2308 43.4966 17.7972ZM23.6365 35.4196C21.7134 35.4196 20.1749 33.6713 20.1749 31.5385C20.1749 29.4056 21.7134 27.6224 23.6365 27.6224C25.5945 27.6224 27.133 29.3706 27.133 31.5385C27.098 33.6713 25.5945 35.4196 23.6365 35.4196ZM36.5036 35.4196C34.5805 35.4196 33.0421 33.6713 33.0421 31.5385C33.0421 29.4056 34.5805 27.6224 36.5036 27.6224C38.4616 27.6224 40.0001 29.3706 39.9651 31.5385C39.9302 33.7063 38.4267 35.4196 36.5036 35.4196Z" fill="white"/>
</svg>
